<?xml version="1.0" encoding="UTF-8" standalone="no"?>
<!-- Created with Inkscape (http://www.inkscape.org/) -->

<svg
   width="355.6832mm"
   height="355.6832mm"
   viewBox="0 0 355.6832 355.6832"
   version="1.1"
   id="svg8"
   inkscape:version="1.1.1 (c3084ef, 2021-09-22)"
   sodipodi:docname="logostarwars.svg"
   xmlns:inkscape="http://www.inkscape.org/namespaces/inkscape"
   xmlns:sodipodi="http://sodipodi.sourceforge.net/DTD/sodipodi-0.dtd"
   xmlns="http://www.w3.org/2000/svg"
   xmlns:svg="http://www.w3.org/2000/svg"
   xmlns:rdf="http://www.w3.org/1999/02/22-rdf-syntax-ns#"
   xmlns:cc="http://creativecommons.org/ns#"
   xmlns:dc="http://purl.org/dc/elements/1.1/">
  <defs
     id="defs2" />
  <sodipodi:namedview
     id="base"
     pagecolor="#ffffff"
     bordercolor="#666666"
     borderopacity="1.0"
     inkscape:pageopacity="0.0"
     inkscape:pageshadow="2"
     inkscape:zoom="0.35368524"
     inkscape:cx="890.62241"
     inkscape:cy="899.10453"
     inkscape:document-units="mm"
     inkscape:current-layer="layer1"
     showgrid="false"
     inkscape:pagecheckerboard="true"
     fit-margin-top="0"
     fit-margin-left="0"
     fit-margin-right="0"
     fit-margin-bottom="0"
     inkscape:window-width="1680"
     inkscape:window-height="924"
     inkscape:window-x="0"
     inkscape:window-y="25"
     inkscape:window-maximized="1" />
  <metadata
     id="metadata5">
    <rdf:RDF>
      <cc:Work
         rdf:about="">
        <dc:format>image/svg+xml</dc:format>
        <dc:type
           rdf:resource="http://purl.org/dc/dcmitype/StillImage" />
      </cc:Work>
    </rdf:RDF>
  </metadata>
  <g
     inkscape:label="Calque 1"
     inkscape:groupmode="layer"
     id="layer1"
     transform="translate(75.788021,10.865404)">
    <path
       inkscape:connector-curvature="0"
       d="M 97.205679,217.21847 C 94.153797,212.7643 77.873104,189.0019 77.873104,189.0019 l 12.4079,34.12595 -38.467241,5.58448 38.467241,5.58447 -14.89075,29.16166 c 0,0 18.577983,-19.53048 21.20265,-22.29026 -1.081617,42.28607 -1.347611,52.69266 -1.347611,52.69266 0,0 -94.92896883,-44.05278 -42.190809,-141.46636 0,0 -65.768008,-72.5939 -6.204657,-117.267208 0,0 -101.754053,61.425311 -37.2268715,166.904808 0,0 -53.3590145,-52.11869 -25.4388065,-104.859314 0,0 -48.39497,68.251914 10.5477021,143.329024 0,0 -16.1314681,-9.92858 -30.4016801,-47.77634 0,0 10.409412,112.67228 136.467839,114.15077 -2.6e-4,0.0148 -2.6e-4,0.0148 -2.6e-4,0.0148 0.42016,0 0.83926,-0.003 1.25659,-0.004 0.41734,0.003 0.83644,0.004 1.25624,0.004 0,0 0,0 0,-0.0148 126.05843,-1.47849 136.46785,-114.15077 136.46785,-114.15077 -14.27022,37.84776 -30.40168,47.77634 -30.40168,47.77634 C 268.31956,165.4247 219.92444,97.172786 219.92444,97.172786 247.84468,149.91341 194.48563,202.0321 194.48563,202.0321 259.01292,96.552603 157.25877,35.127292 157.25877,35.127292 216.82247,79.8006 151.05412,152.3945 151.05412,152.3945 c 52.73815,97.41358 -42.19046,141.46636 -42.19046,141.46636 0,0 -0.26635,-10.40659 -1.34796,-52.69266 2.62466,2.75978 21.20264,22.29026 21.20264,22.29026 l -14.89083,-29.16166 38.46724,-5.58447 -38.46724,-5.58448 12.4079,-34.12595 c 0,0 -16.2807,23.7624 -19.33258,28.21657 -1.38183,-54.0138 -4.80977,-188.031603 -4.82635,-188.664135 -0.006,-1.486251 -0.006,-1.494366 -0.006,-1.494366 0,0 0,0.0013 -0.0159,0.617714 -0.0159,-0.616301 -0.0159,-0.617714 -0.0159,-0.617714 0,0 0,0.0081 -0.007,1.494366 -0.0268,1.056923 -3.447347,134.772745 -4.826003,188.664135"
       style="fill:#f9f9f9;fill-opacity:1;fill-rule:evenodd;stroke:none;stroke-width:0.0352777"
       id="path14"
       inkscape:export-filename="/Users/marco/Documents/Documenti - MacBook Air di Marco/EDGEMONY/faccialibro/src/assets/logostarwars_white.png"
       inkscape:export-xdpi="96"
       inkscape:export-ydpi="96" />
    <path
       inkscape:connector-curvature="0"
       d="m 102.05426,-10.823071 c -98.1960461,0 -177.799947,79.602187 -177.799947,177.798581 0,98.19605 79.6039009,177.79994 177.799947,177.79994 98.1964,0 177.79857,-79.60389 177.79857,-177.79994 0,-98.196394 -79.60217,-177.798581 -177.79857,-177.798581 z"
       style="fill:none;stroke:#000000;stroke-width:0.0846667;stroke-linecap:butt;stroke-linejoin:miter;stroke-miterlimit:10;stroke-dasharray:none;stroke-opacity:1"
       id="path16"
       inkscape:export-filename="/Users/marco/Documents/Documenti - MacBook Air di Marco/EDGEMONY/faccialibro/src/assets/logostarwars_white.png"
       inkscape:export-xdpi="96"
       inkscape:export-ydpi="96" />
    <path
       inkscape:connector-curvature="0"
       d="m 102.05426,-10.823071 c -98.1946359,0 -177.799947,79.603949 -177.799947,177.798581 0,98.19462 79.6053111,177.79994 177.799947,177.79994 98.19463,0 177.79857,-79.60532 177.79857,-177.79994 0,-98.194632 -79.60394,-177.798581 -177.79857,-177.798581 z m 0,21.300369 c 86.4302,0 156.49821,70.068014 156.49821,156.498212 0,86.4302 -70.06801,156.49821 -156.49821,156.49821 -86.430203,0 -156.498217,-70.06801 -156.498217,-156.49821 0,-86.430198 70.068014,-156.498212 156.498217,-156.498212"
       style="fill:#f9f9f9;fill-opacity:1;fill-rule:evenodd;stroke:none;stroke-width:0.0352777"
       id="path18"
       inkscape:export-filename="/Users/marco/Documents/Documenti - MacBook Air di Marco/EDGEMONY/faccialibro/src/assets/logostarwars_white.png"
       inkscape:export-xdpi="96"
       inkscape:export-ydpi="96" />
  </g>
</svg>
